<?xml version="1.0" encoding="utf-8"?>
<!-- Generator: Adobe Illustrator 27.9.4, SVG Export Plug-In . SVG Version: 9.03 Build 54784)  -->
<svg version="1.1" xmlns="http://www.w3.org/2000/svg" xmlns:xlink="http://www.w3.org/1999/xlink" x="0px" y="0px"
	 viewBox="0 0 172 72" style="enable-background:new 0 0 172 72;" xml:space="preserve">
<style type="text/css">
	.st0{fill:#D75B26;}
	.st1{fill:#879FB4;}
	.st2{fill:#F1AB11;}
	.st3{fill:#586229;}
	.st4{fill:#E995B9;}
	.st5{fill:#DF8D27;}
	.st6{fill:#ECD8B8;}
</style>
<g id="Layer_1">
</g>
<g id="_x2014_ÎÓÈ_x5F_1">
	<path class="st0" d="M24.75,37.64h-0.37c-2.53,0-4.94-1.41-4.56,2.7c0.12,1.49,0.25,2.99,0.25,4.56c0,3.48-1.7,6.59-5.14,6.59
		c-5.56,0-7.88-2.41-7.88-7.34C7.04,40.92,7,37.06,7,33.87c0-0.83,0.04-1.66,0.04-2.49c0.25-8.3,2.7-12.73,11.03-12.98h1.04
		c4.6,0,9.17,0.71,9.54,4.98v0.25c0,2.61-2.16,4.44-4.81,4.44c-0.17,0-0.33-0.04-0.5-0.04c-1.24-0.12-2.99-0.54-2.99,1.04
		c0,1.04,2.49,0.54,3.53,0.54c2.7,0,4.73,1.24,4.73,3.9c0,0.12-0.04,0.29-0.04,0.41C28.32,36.03,26.95,37.48,24.75,37.64z"/>
	<path class="st1" d="M46.03,18.11c4.23,0,8.46,1.53,11.61,4.31c3.36,2.9,5.43,7.22,5.64,11.66c0,0.21,0.04,0.46,0.04,0.66
		c0,4.4-1.91,8.79-5.1,11.86c-3.24,3.15-7.76,4.9-12.28,4.9h-0.33c-4.19-0.08-8.34-1.66-11.45-4.44c-3.11-2.78-5.1-6.8-5.43-10.95
		c-0.04-0.37-0.04-0.79-0.04-1.16c0-4.15,1.66-8.3,4.52-11.32c3.11-3.32,7.55-5.31,12.11-5.48C45.58,18.15,45.79,18.11,46.03,18.11z
		 M45.62,28.85c-0.54,0-1.12,0.21-1.62,0.62c-0.5,0.42-0.75,1.04-0.75,1.66c0,0.54,0.21,1.08,0.62,1.49
		c0.46,0.46,1.16,0.75,1.87,0.75c0.5,0,1.04-0.12,1.49-0.46c0.58-0.41,0.95-1,0.95-1.74C48.19,29.89,46.95,28.85,45.62,28.85z"/>
	<path class="st2" d="M80.67,18.11c4.23,0,8.46,1.53,11.61,4.31c3.36,2.9,5.43,7.22,5.64,11.66c0,0.21,0.04,0.46,0.04,0.66
		c0,4.4-1.91,8.79-5.1,11.86c-3.24,3.15-7.76,4.9-12.28,4.9h-0.33c-4.19-0.08-8.34-1.66-11.45-4.44c-3.11-2.78-5.1-6.8-5.43-10.95
		c-0.04-0.37-0.04-0.79-0.04-1.16c0-4.15,1.66-8.3,4.52-11.32c3.11-3.32,7.55-5.31,12.11-5.48C80.22,18.15,80.42,18.11,80.67,18.11z
		 M80.26,28.85c-0.54,0-1.12,0.21-1.62,0.62c-0.5,0.42-0.75,1.04-0.75,1.66c0,0.54,0.21,1.08,0.62,1.49
		c0.46,0.46,1.16,0.75,1.87,0.75c0.5,0,1.04-0.12,1.49-0.46c0.58-0.41,0.95-1,0.95-1.74C82.83,29.89,81.59,28.85,80.26,28.85z"/>
	<path class="st3" d="M130.08,34.74c0,4.4-1.91,8.79-5.1,11.86c-3.24,3.15-7.22,4.9-11.7,4.9c-1.66,0-3.15,0-4.65-0.04
		c-1.62-0.04-3.15-0.12-4.81-0.25c-2.45-0.25-4.19-1.41-5.02-3.32c-0.54-1.24-0.66-5.6-0.7-9.75c-0.04-5.64-0.54-15.8,1.87-18.21
		c1.62-1.62,4.65-1.95,7.55-1.95c12.28,0,22.56,4.4,22.52,16.09C130.04,34.28,130.08,34.53,130.08,34.74z M112.37,28.93
		c-0.46,0-0.87,0.12-1.08,0.37c-0.29,0.37-0.37,1.04-0.37,1.74c0,0.87,0.12,1.78,0.25,2.03c0.21,0.46,0.83,0.62,1.49,0.62
		c0.62,0,1.33-0.17,1.87-0.54c0.54-0.37,0.95-1.29,0.95-1.99C115.48,29.14,113.65,28.93,112.37,28.93z"/>
	<path class="st4" d="M143.31,34.66c0,2.95-0.12,5.89-0.33,8.79c-0.08,1.49-0.25,3.03-0.83,4.4c-0.83,1.95-2.74,3.69-5.18,3.69
		c-0.21,0-0.42,0-0.62-0.04c-2.24-0.25-3.9-1.95-4.81-3.77c-1.12-2.28-1.33-5.48-1.33-8.79c0-1.74,0.04-3.53,0.08-5.23
		c0.12-5.31,0-11.12,2.82-13.9c1.04-1.04,2.45-1.58,3.86-1.58c1.49,0,2.99,0.58,4.06,1.74c1.7,1.82,2.07,4.69,2.16,8.05
		C143.27,30.22,143.31,32.46,143.31,34.66z"/>
	<path class="st5" d="M165.13,24.33c0,2.57-1.99,5.06-4.69,5.06c-0.21,0-0.41,0-0.62-0.04c-0.5-0.08-1.08-0.21-1.62-0.21
		c-0.33,0-0.66,0.08-0.95,0.25c-0.25,0.17-0.41,0.46-0.41,0.83c0,0.5,0.54,0.66,1.08,0.66c0.25,0,0.46,0,0.71-0.04
		c0.37-0.04,0.75-0.08,1.16-0.08c0.5,0,0.99,0.04,1.49,0.08c1.66,0.17,2.7,0.79,3.32,1.91c0.33,0.62,0.5,1.29,0.5,1.91
		c0,3.73-2.86,3.82-6.84,3.82c-0.29,0-0.62,0-0.87,0.04c-0.42,0.08-0.71,0.29-0.71,0.79c0,0.91,0.71,1.16,1.45,1.16
		c0.33,0,0.62-0.04,0.95-0.08c0.42-0.08,0.87-0.12,1.24-0.12c2.7,0,4.56,1.66,4.56,4.52c0,0.08-0.04,0.21-0.04,0.33
		c-0.21,4.65-4.44,6.43-9.17,6.43c-1.12,0-2.24-0.12-3.36-0.29c-1.87-0.29-3.73-0.87-5.14-2.12c-3.24-2.86-3.69-9.13-3.69-15.1
		c0-0.91,0.04-1.78,0.04-2.65c0.08-4.65,0.66-8.5,3.48-10.74c1.95-1.58,5.23-2.24,8.59-2.24c1.16,0,2.32,0.08,3.48,0.25
		c1.29,0.21,2.61,0.46,3.69,1.2c1.37,0.91,2.28,2.53,2.36,4.19V24.33z"/>
	<path class="st6" d="M16.18,35.59c0,0,0.51-0.47-0.39-7.47c0-0.02-0.03-0.04-0.06-0.05l-0.33-0.04c-0.04,0-0.08,0.02-0.08,0.05
		l-0.18,5.1c0,0.07-0.06,0.14-0.15,0.17c-0.06,0.02-0.15,0.03-0.24-0.01c-0.08-0.03-0.12-0.09-0.13-0.16l-0.17-5.13
		c0-0.03-0.03-0.05-0.07-0.05h-0.24c-0.04,0-0.07,0.02-0.07,0.05l-0.12,5.12c0,0.04-0.02,0.08-0.05,0.11
		c-0.05,0.04-0.11,0.07-0.15,0.08c0,0-0.01,0-0.01,0c-0.01,0-0.01,0-0.02,0c0,0-0.01,0-0.01,0c0,0-0.01,0-0.01,0c0,0-0.01,0-0.01,0
		c0,0-0.01,0-0.01,0c0,0-0.01,0-0.01,0c0,0-0.01,0-0.01,0c-0.01,0-0.01,0-0.02,0c0,0-0.01,0-0.01,0c-0.05-0.01-0.1-0.04-0.15-0.08
		c-0.03-0.03-0.05-0.07-0.05-0.11l-0.12-5.12c0-0.03-0.03-0.05-0.07-0.05h-0.24c-0.04,0-0.07,0.02-0.07,0.05l-0.17,5.13
		c0,0.07-0.05,0.13-0.13,0.16c-0.09,0.04-0.17,0.03-0.24,0.01c-0.09-0.03-0.15-0.1-0.15-0.17l-0.18-5.1c0-0.03-0.42-0.01-0.42-0.01
		c-0.03,0-0.06,0.02-0.06,0.05c-0.9,7-0.39,7.47-0.39,7.47c0.09,0.37,1.2,1.19,1.67,1.53c0.09,0.07,0.14,0.16,0.14,0.25l-0.63,15.55
		c-0.03,0.65,0.58,1.18,1.34,1.18l0,0c0.76,0,1.37-0.54,1.34-1.18l-0.63-15.55c0-0.09,0.05-0.18,0.14-0.25
		C14.98,36.79,16.1,35.96,16.18,35.59z"/>
</g>
</svg>
